<svg width="28" height="30" viewBox="0 0 28 30" fill="none" xmlns="http://www.w3.org/2000/svg">
<path d="M14.3462 4.9453C13.8427 3.79292 11.9799 1.67893 9.96467 0.605078C9.45569 0.333878 8.83167 0.652417 8.74333 1.22236C8.70471 1.47161 8.6835 1.69358 8.70842 1.79197C6.92609 1.31111 5.21442 2.348 3.48667 2.95873C3.32549 3.01571 3.19887 3.14232 3.14189 3.3035C2.53117 5.03125 1.49428 6.74292 1.97514 8.52525C1.87675 8.50033 1.65477 8.52149 1.40553 8.5601C0.835583 8.64845 0.517044 9.27246 0.788244 9.78144C1.86209 11.7967 3.97608 13.6595 5.12847 14.163L14.3462 4.9453Z" fill="#4B5165"/>
<path d="M26.9815 27.7248C26.7554 26.5939 24.389 20.0868 23.4645 18.1517C23.6123 16.9887 23.3168 15.8824 22.5426 15.1082C20.9933 13.5589 18.1141 13.9261 16.1118 15.9285C14.1094 17.9309 13.7421 20.8101 15.2914 22.3593C15.3164 22.3843 15.3427 22.4074 15.3683 22.4314C14.2737 24.4403 13.0465 26.9365 12.8584 27.3205C12.4555 28.1429 12.7956 29.1363 13.6181 29.5392C14.4394 29.9416 15.4334 29.603 15.8368 28.7794C16.3955 27.6388 17.7787 24.8815 18.7267 23.2142C19.6514 23.0198 20.5916 22.5516 21.4134 21.8274C22.3807 24.3147 23.6051 27.7804 23.7294 28.3751C23.9094 29.2754 24.7847 29.8552 25.6807 29.676C26.5788 29.4965 27.1612 28.6228 26.9815 27.7248Z" fill="#FFD3BD"/>
<path d="M26.6376 26.5422C25.8965 24.2546 24.2108 19.7137 23.4645 18.1517C23.6123 16.9887 23.3168 15.8824 22.5426 15.1082C20.9933 13.5589 18.1141 13.9261 16.1118 15.9285C14.1094 17.9309 13.7421 20.8101 15.2914 22.3593C15.3164 22.3843 15.3426 22.4074 15.3683 22.4314C14.6861 23.6835 13.9524 25.1248 13.4508 26.1261C14.094 26.29 15.6344 26.8583 16.4034 27.6379C17.0719 26.3048 18.0201 24.4569 18.7267 23.2143C19.6514 23.0198 20.5916 22.5516 21.4134 21.8274C22.138 23.6907 23.0069 26.103 23.4496 27.4462C23.9586 26.8928 25.6007 26.337 26.6376 26.5422Z" fill="#4B5165"/>
<path d="M10.517 25.2346C10.0243 26.0209 8.98743 26.2589 8.2011 25.7663C7.41487 25.2735 7.17687 24.2367 7.66948 23.4504C8.22072 22.5707 10.5509 16.6835 10.666 15.7173C10.7747 14.7967 11.6044 14.1339 12.5263 14.2394C13.4482 14.345 14.1099 15.1782 14.0044 16.1001C13.8155 17.7405 11.2381 24.0837 10.517 25.2346Z" fill="#FFD3BD"/>
<path d="M17.7623 12.988C17.0917 13.6293 16.0281 13.6056 15.3868 12.9349C14.7454 12.2642 14.7673 11.1991 15.4398 10.5595C16.1112 9.91862 19.2839 5.57685 20.3943 3.70646C20.8679 2.90871 21.8989 2.64573 22.6968 3.11946C23.4946 3.59319 23.7575 4.62403 23.2838 5.42189C22.3671 6.96587 18.913 11.8864 17.7623 12.988Z" fill="#FFBE9D"/>
<path d="M19.9745 19.7913C20.8691 18.8968 23.7293 15.6437 22.1733 14.373C19.5848 12.259 14.0154 9.96815 12.0833 11.9002C10.1513 13.8322 12.4421 19.4016 14.5561 21.9902C15.8268 23.5462 19.0799 20.6859 19.9745 19.7913Z" fill="#0AB5A3"/>
<path d="M15.3377 15.1545C16.3063 14.1859 17.0305 13.0409 17.468 11.8116C15.3069 11.0523 13.1455 10.838 12.0833 11.9001C11.0212 12.9622 11.2355 15.1236 11.9949 17.2847C13.2241 16.8472 14.3692 16.123 15.3377 15.1545Z" fill="#146759"/>
<path d="M5.22983 16.5036C6.40078 16.5036 7.35003 15.5543 7.35003 14.3834C7.35003 13.2124 6.40078 12.2632 5.22983 12.2632C4.05887 12.2632 3.10962 13.2124 3.10962 14.3834C3.10962 15.5543 4.05887 16.5036 5.22983 16.5036Z" fill="#FFD3BD"/>
<path d="M14.5666 7.16693C15.7376 7.16693 16.6868 6.21768 16.6868 5.04672C16.6868 3.87576 15.7376 2.92651 14.5666 2.92651C13.3957 2.92651 12.4464 3.87576 12.4464 5.04672C12.4464 6.21768 13.3957 7.16693 14.5666 7.16693Z" fill="#FFBE9D"/>
<path d="M14.2037 14.0229C16.8039 11.4226 17.0773 7.48014 14.8142 5.21705C12.5511 2.95397 8.6086 3.22728 6.00836 5.82751C3.40813 8.42774 3.13482 12.3702 5.39791 14.6333C7.66099 16.8964 11.6035 16.6231 14.2037 14.0229Z" fill="#FFD3BD"/>
<path d="M15.6303 12.0492C9.19694 17.0738 4.80989 11.1471 4.29173 8.48022C3.47733 10.6655 3.82262 13.0571 5.39934 14.6339C7.66276 16.8973 11.6059 16.624 14.2065 14.0234C14.8056 13.4242 15.2808 12.7538 15.6303 12.0492Z" fill="#FFBE9D"/>
<path d="M8.41959 14.8489C9.09306 14.1755 9.20425 13.1948 8.66794 12.6584C8.13164 12.1221 7.15092 12.2333 6.47745 12.9068C5.80398 13.5803 5.69279 14.561 6.2291 15.0973C6.7654 15.6336 7.74612 15.5224 8.41959 14.8489Z" fill="#EDA1AB"/>
<path d="M15.0302 8.2392C15.7037 7.56573 15.8148 6.58501 15.2785 6.0487C14.7422 5.5124 13.7615 5.62359 13.088 6.29706C12.4146 6.97053 12.3034 7.95124 12.8397 8.48755C13.376 9.02386 14.3567 8.91267 15.0302 8.2392Z" fill="#EDA1AB"/>
<path d="M7.22667 12.6602C7.11722 12.6602 7.00771 12.6184 6.92415 12.5349L6.42561 12.0364C6.25856 11.8693 6.25856 11.5985 6.42561 11.4314C6.59273 11.2644 6.86353 11.2644 7.03058 11.4314L7.52912 11.9299C7.69618 12.0971 7.69618 12.3679 7.52912 12.5349C7.44562 12.6183 7.33612 12.6602 7.22667 12.6602Z" fill="#4B5165"/>
<path d="M12.4157 7.47096C12.3063 7.47096 12.1968 7.42921 12.1133 7.34571L11.6147 6.84717C11.4476 6.68012 11.4476 6.40926 11.6146 6.24226C11.7817 6.07515 12.0526 6.07521 12.2196 6.24221L12.7182 6.74075C12.8853 6.9078 12.8853 7.17866 12.7183 7.34566C12.6347 7.42921 12.5252 7.47096 12.4157 7.47096Z" fill="#4B5165"/>
<path d="M9.21082 10.7378C9.17158 10.7378 9.13235 10.7365 9.09299 10.7338C8.85727 10.7176 8.67938 10.5134 8.69557 10.2777C8.71177 10.042 8.91544 9.86543 9.15168 9.88026C9.39887 9.89709 9.64081 9.8068 9.81551 9.6321C9.9902 9.45746 10.0806 9.21546 10.0637 8.96822C10.0475 8.73249 10.2255 8.52831 10.4611 8.51217C10.6967 8.49671 10.901 8.67392 10.9172 8.90964C10.9511 9.40368 10.77 9.8875 10.4205 10.2371C10.0987 10.5588 9.66328 10.7378 9.21082 10.7378Z" fill="#4B5165"/>
</svg>
