<?xml version="1.0" encoding="utf-8"?>
<!-- Generator: Adobe Illustrator 23.0.3, SVG Export Plug-In . SVG Version: 6.00 Build 0)  -->
<svg version="1.1" id="color" xmlns="http://www.w3.org/2000/svg" xmlns:xlink="http://www.w3.org/1999/xlink" x="0px" y="0px"
	 viewBox="0 0 512 512" style="enable-background:new 0 0 512 512;" xml:space="preserve">
<style type="text/css">
	.st0{fill:#3B82F6;}
	.st1{opacity:0.1;fill:#231F20;enable-background:new    ;}
	.st2{fill:#FFFFFF;}
</style>
<path class="st0" d="M95.2,510.8c-6-2.5-9.9-8.3-9.9-14.8v-90.7H58.7C26.3,405.3,0,379,0,346.7v-288C0,26.3,26.3,0,58.7,0h394.7
	C485.7,0,512,26.3,512,58.7v288c0,32.4-26.3,58.7-58.7,58.7H214.6l-102,102C108,512,101.1,513.2,95.2,510.8z"/>
<path class="st1" d="M256,0H58.7C26.3,0,0,26.3,0,58.7v288c0,32.4,26.3,58.7,58.7,58.7h26.7V496c0,6.5,3.9,12.3,9.9,14.8
	c2,0.8,4,1.2,6.1,1.2c4.1,0,8.2-1.6,11.3-4.7l102-102H256V0z"/>
<g>
	<path class="st2" d="M176,277.3c-8.8,0-16-7.2-16-16V192c0-5.9-4.8-10.7-10.7-10.7s-10.7,4.8-10.7,10.7v69.3c0,8.8-7.2,16-16,16
		s-16-7.2-16-16V192c0-23.5,19.1-42.7,42.7-42.7S192,168.5,192,192v69.3C192,270.2,184.8,277.3,176,277.3z"/>
	<path class="st2" d="M176,245.3h-53.3c-8.8,0-16-7.2-16-16s7.2-16,16-16H176c8.8,0,16,7.2,16,16C192,238.2,184.8,245.3,176,245.3z"
		/>
	<path class="st2" d="M256,277.3h-26.7c-8.8,0-16-7.2-16-16v-96c0-8.8,7.2-16,16-16H256c23.5,0,42.7,17.9,42.7,40
		c0,9-3.2,17.3-8.6,24c5.4,6.7,8.6,15,8.6,24C298.7,259.4,279.5,277.3,256,277.3z M245.3,245.3H256c5.8,0,10.7-3.7,10.7-8
		s-4.9-8-10.7-8h-10.7V245.3z M245.3,197.3H256c5.8,0,10.7-3.7,10.7-8s-4.9-8-10.7-8h-10.7V197.3z"/>
	<path class="st2" d="M389.3,277.3h-32c-20.6,0-37.3-16.7-37.3-37.3v-53.3c0-20.6,16.7-37.3,37.3-37.3h32c8.8,0,16,7.2,16,16
		s-7.2,16-16,16h-32c-2.9,0-5.3,2.4-5.3,5.3V240c0,2.9,2.4,5.3,5.3,5.3h32c8.8,0,16,7.2,16,16S398.2,277.3,389.3,277.3z"/>
</g>
</svg>
