<?xml version="1.0" encoding="utf-8"?>
<!-- Generator: Adobe Illustrator 23.0.3, SVG Export Plug-In . SVG Version: 6.00 Build 0)  -->
<svg version="1.1" id="color" xmlns="http://www.w3.org/2000/svg" xmlns:xlink="http://www.w3.org/1999/xlink" x="0px" y="0px"
	 viewBox="0 0 512 512" style="enable-background:new 0 0 512 512;" xml:space="preserve">
<style type="text/css">
	.st0{fill:#ECEFF1;}
	.st1{fill:#D2D4D6;}
	.st2{fill:#3B82F6;}
	.st3{fill:#FFFFFF;}
</style>
<path class="st0" d="M368,0H101.3C69,0,42.7,26.3,42.7,58.7v394.7c0,32.4,26.3,58.7,58.7,58.7H368c32.4,0,58.7-26.3,58.7-58.7V58.7
	C426.7,26.3,400.4,0,368,0z"/>
<path class="st1" d="M234.7,0H101.3C69,0,42.7,26.3,42.7,58.7v394.7c0,32.4,26.3,58.7,58.7,58.7h133.3L234.7,0L234.7,0z"/>
<path class="st2" d="M496,512h-32c-20.6,0-37.3-16.7-37.3-37.3v-53.3c0-20.6,16.7-37.3,37.3-37.3h32c8.8,0,16,7.2,16,16
	s-7.2,16-16,16h-32c-2.9,0-5.3,2.4-5.3,5.3v53.3c0,2.9,2.4,5.3,5.3,5.3h32c8.8,0,16,7.2,16,16S504.8,512,496,512z"/>
<path class="st3" d="M234.7,408h40v53.3h-40L234.7,408L234.7,408z"/>
<path class="st3" d="M334.2,403.6H384v90.7h-49.8V403.6z"/>
<g>
	<path class="st2" d="M282.7,512c-8.8,0-16-7.2-16-16v-69.3c0-5.9-4.8-10.7-10.7-10.7s-10.7,4.8-10.7,10.7V496c0,8.8-7.2,16-16,16
		s-16-7.2-16-16v-69.3c0-23.5,19.1-42.7,42.7-42.7s42.7,19.1,42.7,42.7V496C298.7,504.8,291.5,512,282.7,512z"/>
	<path class="st2" d="M362.7,512H336c-8.8,0-16-7.2-16-16v-96c0-8.8,7.2-16,16-16h26.7c23.5,0,42.7,17.9,42.7,40
		c0,9-3.2,17.3-8.6,24c5.4,6.7,8.6,15,8.6,24C405.3,494.1,386.2,512,362.7,512z M352,480h10.7c5.8,0,10.7-3.7,10.7-8s-4.9-8-10.7-8
		H352V480z M352,432h10.7c5.8,0,10.7-3.7,10.7-8s-4.9-8-10.7-8H352V432z"/>
	<path class="st2" d="M282.7,480h-53.3c-8.8,0-16-7.2-16-16s7.2-16,16-16h53.3c8.8,0,16,7.2,16,16S291.5,480,282.7,480z"/>
</g>
</svg>
