<svg id="Capa_1" enable-background="new 0 0 512 512" height="512" viewBox="0 0 512 512" width="512" xmlns="http://www.w3.org/2000/svg"><g><g><path d="m127.024 81.232c-13.983-8.338-25.672-20.028-34.01-34.01-2.343-3.929-6.543-6.37-11.118-6.37-4.574 0-8.775 2.442-11.118 6.37-8.338 13.983-20.027 25.673-34.01 34.01-3.929 2.343-6.37 6.543-6.37 11.117 0 4.574 2.442 8.775 6.37 11.118 13.982 8.338 25.672 20.027 34.01 34.01 2.343 3.929 6.543 6.37 11.117 6.37 4.574 0 8.775-2.442 11.117-6.37 8.338-13.982 20.027-25.672 34.01-34.01 3.929-2.343 6.37-6.543 6.37-11.118.003-4.574-2.439-8.774-6.368-11.117z" fill="#f9ef80"/></g><g><path d="m81.897 92.349c0-14.769 6.227-28.077 16.187-37.467-1.804-2.468-3.497-5.023-5.07-7.661-2.343-3.929-6.543-6.37-11.118-6.37-4.574 0-8.775 2.442-11.118 6.37-8.338 13.983-20.027 25.673-34.01 34.01-3.929 2.343-6.37 6.543-6.37 11.117 0 4.574 2.442 8.775 6.37 11.118 13.982 8.338 25.672 20.027 34.01 34.01 2.343 3.929 6.543 6.37 11.117 6.37 4.574 0 8.775-2.442 11.117-6.37 1.573-2.638 3.265-5.193 5.07-7.66-9.958-9.39-16.185-22.697-16.185-37.467z" fill="#f9d171"/></g><g><path d="m464.778 418.986c-13.983-8.338-25.672-20.028-34.01-34.01-2.343-3.929-6.543-6.37-11.118-6.37-4.574 0-8.775 2.442-11.117 6.37-8.338 13.983-20.027 25.673-34.01 34.01-3.929 2.343-6.37 6.543-6.37 11.117 0 4.574 2.442 8.775 6.37 11.118 13.983 8.337 25.672 20.027 34.01 34.01 2.343 3.929 6.543 6.37 11.117 6.37 4.574 0 8.775-2.442 11.117-6.37 8.338-13.982 20.027-25.672 34.01-34.01 3.929-2.343 6.371-6.543 6.37-11.118.002-4.574-2.44-8.775-6.369-11.117z" fill="#f9ef80"/></g><g><path d="m419.651 430.103c0-14.769 6.227-28.077 16.187-37.467-1.804-2.468-3.497-5.023-5.07-7.661-2.343-3.929-6.543-6.37-11.118-6.37-4.574 0-8.775 2.442-11.118 6.37-8.338 13.983-20.027 25.673-34.01 34.01-3.929 2.343-6.37 6.543-6.37 11.117 0 4.574 2.442 8.775 6.37 11.118 13.982 8.338 25.672 20.027 34.01 34.01 2.343 3.929 6.543 6.37 11.117 6.37 4.574 0 8.775-2.442 11.117-6.37 1.573-2.638 3.265-5.193 5.07-7.66-9.958-9.39-16.185-22.698-16.185-37.467z" fill="#f9d171"/></g><g><path d="m9.052 502.948c-12.069-12.069-12.069-31.638 0-43.707l101.983-101.983c12.069-12.069 31.638-12.069 43.707 0 12.069 12.069 12.069 31.638 0 43.707l-101.983 101.983c-12.069 12.069-31.638 12.069-43.707 0z" fill="#ffbe6b"/></g><g><path d="m154.742 357.258c-12.069-12.069-31.638-12.069-43.707 0l-87.234 87.234c12.069-12.069 31.637-12.069 43.707 0 12.069 12.069 12.069 31.638 0 43.707l87.234-87.234c12.069-12.069 12.069-31.637 0-43.707z" fill="#ffaa3e"/></g><g><path d="m165.06 476.3-131.121-131.12c-16.092-16.092-16.092-42.183 0-58.276l211.25-211.25 189.397 189.396-211.25 211.25c-16.093 16.093-42.184 16.093-58.276 0z" fill="#fff2cf"/></g><g><path d="m77.646 330.611 211.25-211.25-43.707-43.707-211.25 211.25c-16.092 16.092-16.092 42.183 0 58.276l43.707 43.707c-16.092-16.093-16.092-42.184 0-58.276z" fill="#ffe1bd"/></g><g><path d="m201.219 46.253 262.768 262.767c14.471 14.471 39.034 5.017 39.763-15.303l8.209-228.852c1.296-36.132-28.189-65.851-64.33-64.84l-230.923 6.459c-20.415.571-30.02 25.236-15.487 39.769z" fill="#ff8870"/></g><g><path d="m267.698 57.475 230.922-6.459c4.263-.119 8.429.203 12.467.9-5.165-30.004-31.747-52.778-63.459-51.891l-230.922 6.459c-20.415.571-30.02 25.236-15.487 39.769l50.991 50.991c-14.533-14.533-4.927-39.198 15.488-39.769z" fill="#ff6c52"/></g><g><g><path d="m352.276 93.239c-8.337 8.283-23.529 6.512-33.93-3.957-10.403-10.47-12.076-25.672-3.739-33.956 8.337-8.283 23.528-6.512 33.931 3.957 10.402 10.47 12.075 25.673 3.738 33.956" fill="#fff"/></g><g><path d="m416.698 158.077c-8.337 8.283-6.663 23.486 3.738 33.955 10.403 10.47 25.594 12.241 33.931 3.958s6.664-23.486-3.739-33.956c-10.402-10.47-25.593-12.241-33.93-3.957" fill="#fff"/></g><g><path d="m358.95 78.393c-1.928 0-3.854-.738-5.32-2.214-2.92-2.938-2.904-7.687.034-10.606l7.749-7.7c2.939-2.919 7.688-2.904 10.606.034 2.92 2.938 2.904 7.687-.034 10.606l-7.749 7.7c-1.463 1.454-3.375 2.18-5.286 2.18z" fill="#495560"/></g><g><path d="m439.087 159.047c-1.928 0-3.854-.738-5.32-2.214-2.92-2.938-2.904-7.688.034-10.606l7.75-7.7c2.939-2.919 7.688-2.904 10.606.034 2.92 2.938 2.904 7.688-.034 10.606l-7.75 7.7c-1.463 1.454-3.375 2.18-5.286 2.18z" fill="#495560"/></g><g><path d="m408.505 129.165c-7.271 0-14.266-2.889-19.419-8.076-5.576-5.612-8.449-13.364-7.881-21.268.296-4.131 3.89-7.223 8.018-6.943 4.132.297 7.24 3.887 6.943 8.019-.257 3.578 1.041 7.084 3.561 9.62 2.52 2.537 6.022 3.849 9.596 3.622 4.098-.281 7.703 2.86 7.975 6.993.271 4.133-2.86 7.704-6.994 7.975-.601.038-1.201.058-1.799.058z" fill="#495560"/></g></g><g><path d="m194.198 126.645 233.103 145.69-72.845 72.845-233.103-145.69z" fill="#ff8870"/></g><g><path d="m247.991 160.266-53.793-33.621-72.845 72.845 53.793 33.621z" fill="#ff6c52"/></g><g><path d="m33.939 286.904c-11.062 11.062-14.52 26.85-10.373 40.866l214.339 133.962 72.845-72.845-233.104-145.69z" fill="#ff8870"/></g><g><path d="m77.646 330.611 53.793-53.793-53.793-33.621-43.707 43.707c-11.062 11.062-14.52 26.85-10.373 40.866l42.384 26.49c1.156-8.649 5.049-17.003 11.696-23.649z" fill="#ff6c52"/></g></g></svg>