<svg width="16" height="23" viewBox="0 0 16 23" fill="none" xmlns="http://www.w3.org/2000/svg">
<path d="M8 0C4.62305 0.00414707 1.88647 2.74068 1.88232 6.11767V9.88237C1.88232 10.1423 2.09303 10.353 2.35293 10.353H4.2353C4.4952 10.353 4.7059 10.1423 4.7059 9.88237V6.11767C4.70586 4.29835 6.18071 2.82353 8 2.82353C9.81928 2.82353 11.2941 4.29835 11.2941 6.11767V9.88237C11.2941 10.1423 11.5048 10.353 11.7647 10.353H13.6471C13.907 10.353 14.1177 10.1423 14.1177 9.88237V6.11767C14.1135 2.74068 11.3769 0.00414707 8 0Z" fill="#455A64"/>
<path d="M2.35293 9.41174H13.6471C14.9466 9.41174 16 10.4652 16 11.7647V20.2353C16 21.5348 14.9466 22.5883 13.6471 22.5883H2.35293C1.05344 22.5883 0 21.5348 0 20.2353V11.7647C0 10.4652 1.05344 9.41174 2.35293 9.41174Z" fill="#848383"/>
<path d="M10.353 14.5882C10.3584 13.2887 9.30946 12.2308 8.00997 12.2254C6.71049 12.2199 5.65259 13.2689 5.64712 14.5684C5.64332 15.4666 6.15125 16.2886 6.95627 16.687L6.59296 19.2282C6.55656 19.4856 6.73568 19.7237 6.99301 19.7601C7.01481 19.7631 7.03682 19.7647 7.05884 19.7647H8.94121C9.20111 19.7673 9.41393 19.5588 9.41653 19.2989C9.41675 19.2749 9.41521 19.251 9.41177 19.2273L9.04846 16.6861C9.84364 16.2882 10.3478 15.4773 10.353 14.5882Z" fill="#455A64"/>
</svg>
