<svg xmlns="http://www.w3.org/2000/svg" viewBox="0 0 559.35 78.15">
  <title>Asset 1</title>
  <g id="Layer_2" data-name="Layer 2">
    <g id="Layer_1-2" data-name="Layer 1">
      <g>
        <path d="M0,75.77V2.48H44.36V17.59H16.69V30.83h23.7v15H16.69v14.5H44.76V75.77Z" fill="#fff"/>
        <path d="M57.88,75.77V2.48H77q20.18,0,31.6,9.8T120,39.12a35.78,35.78,0,0,1-4.52,18.12,35.3,35.3,0,0,1-13.26,13,36.83,36.83,0,0,1-10.81,4.22A68.19,68.19,0,0,1,77,75.77Zm17-15.72h3.77q11.28,0,17.64-5.56t6.36-15.37q0-9.79-6.36-15.41T78.64,18.1H74.87Z" fill="#fff"/>
        <path d="M148.34,2.48V42.76q0,9.7,3.5,14.53t10.61,4.83q6.86,0,10.45-4.5t3.61-13.09V2.48h15.35V44.53q0,15.87-8,24.74t-22.21,8.88q-14.35,0-22.33-8.8t-8-24.72V2.48Z" fill="#fff"/>
        <path d="M268.81,35.08V70.71a74.56,74.56,0,0,1-14.14,5.57,51,51,0,0,1-13.33,1.87q-16.46,0-27.3-11.05T203.18,39.22q0-17,11-28.1T242,0a41,41,0,0,1,12.12,1.77,41.47,41.47,0,0,1,11.08,5.36l-1.84,18.35a36.18,36.18,0,0,0-10-7.56A23.68,23.68,0,0,0,243,15.52a21.37,21.37,0,0,0-16,6.59,22.84,22.84,0,0,0-6.36,16.51q0,10.41,6.14,17a20.64,20.64,0,0,0,15.82,6.59,25.82,25.82,0,0,0,4.52-.4,42.19,42.19,0,0,0,4.77-1.16V50H238.16V35.08Z" fill="#fff"/>
        <path d="M283.07,75.77V2.48H301.6a61.14,61.14,0,0,1,13.78,1.19,24,24,0,0,1,8.67,4,20.43,20.43,0,0,1,6.24,7.26A19.8,19.8,0,0,1,332.5,24,21.44,21.44,0,0,1,329,36.14a22.78,22.78,0,0,1-10,8.14l22,31.49H321.42L302.19,47h-2.43V75.77Zm19.52-59.95h-2.83V36.14h3.62q6.51,0,9.94-2.68a9.14,9.14,0,0,0,3.43-7.68c0-3.51-1.11-6-3.33-7.61S307.59,15.82,302.59,15.82Z" fill="#fff"/>
      </g>
      <path d="M350.53,75.78,387.48,1h1.1l36.15,74.75h-18.1L402,65.23h-29.4l-4.7,10.55Zm27.1-23.05h19.05L387.28,30Z" fill="#fff"/>
      <path d="M438.87,1.41h10.68a3,3,0,0,1,3,3v10.2a0,0,0,0,1,0,0H435.85a0,0,0,0,1,0,0V4.43A3,3,0,0,1,438.87,1.41Z" fill="#fff"/>
      <rect x="435.85" y="17.55" width="16.72" height="42.07" fill="#fff"/>
      <path d="M445.13,75.33l7.44-12.77H435.85l7.44,12.77A1.07,1.07,0,0,0,445.13,75.33Z" fill="#fff"/>
      <g>
        <path d="M478.66,6.81a24.56,24.56,0,0,0-8.9-4.16,58.52,58.52,0,0,0-13.55-1.24h-.71V14.62h1.71c4.91,0,8.51.77,10.76,2.29s3.37,3.92,3.37,7.2a8.39,8.39,0,0,1-3.42,7.22c-2.29,1.68-5.59,2.51-9.93,2.51H455.5V42l0,5.11.62,0h2.08q13.32,0,21.08-6.4t7.78-17.32a20.34,20.34,0,0,0-2.21-9.3A20.08,20.08,0,0,0,478.66,6.81Z" fill="#fff"/>
        <polygon points="542.48 1.41 542.48 27.84 514.73 27.84 514.73 1.41 497.75 1.41 497.75 73.38 514.73 73.38 514.73 43.19 542.48 43.19 542.48 73.38 559.36 73.38 559.36 1.41 542.48 1.41" fill="#fff"/>
      </g>
    </g>
  </g>
</svg>
