<?xml version="1.0" encoding="utf-8"?>
<!-- Generator: Adobe Illustrator 23.0.3, SVG Export Plug-In . SVG Version: 6.00 Build 0)  -->
<svg version="1.1" id="Layer_1" xmlns="http://www.w3.org/2000/svg" xmlns:xlink="http://www.w3.org/1999/xlink" x="0px" y="0px"
	 viewBox="0 0 366 153" style="enable-background:new 0 0 366 153;" xml:space="preserve">
<style type="text/css">
	.st0{fill:#FFFFFF;}
</style>
<path class="st0" d="M289.2,92.1c0,7.7-2.8,13.7-8.4,18.1c-5.6,4.3-12.8,6.5-21.5,6.5c-6.9,0-13.6-1.9-20.1-5.7
	c-3.2-2-5.8-4.8-7.9-8.3c-2.1-3.6-3.1-7.8-3.1-12.4l14.4-0.7c0,4.1,1.7,7.3,5.2,9.6s7.4,3.4,11.6,3.4c9.5,0,14.2-3.3,14.2-10
	c0-5.5-3.2-8.7-9.7-9.7l-13.2-1.4c-6.6-1-11.9-3.3-15.7-7.1c-3.9-3.7-5.8-9.1-5.8-16.1s2.8-12.8,8.3-17.3c5.5-4.6,12.5-6.8,21-6.8
	c8.5,0,15.4,2.2,20.5,6.5c5.2,4.3,7.8,9.8,7.8,16.5l-14.1,0.7c-1.3-6.6-5.7-9.9-13.3-9.9c-4.6,0-8.3,1-10.9,3
	c-2.6,2-3.9,4.3-3.9,7.1c0,2.7,0.9,4.8,2.8,6.4c1.9,1.5,4.3,2.5,7.1,2.8l13,1.4C281.9,70.6,289.2,78.4,289.2,92.1z M363.4,116h-16.5
	l-4.6-14H315l-4.4,14h-16.5l26-74.3c1.1-2.6,2.4-4.4,3.8-5.4c1.4-1,3.2-1.5,5.2-1.5s3.7,0.5,4.9,1.4c1.3,0.9,2.4,2.7,3.4,5.5
	L363.4,116z M338.6,88.6l-9.6-32.1l-10,32.1H338.6z"/>
<path class="st0" d="M64.2,92.1c0,7.7-2.8,13.7-8.4,18.1c-5.6,4.3-12.8,6.5-21.5,6.5c-6.9,0-13.6-1.9-20.1-5.7
	c-3.2-2-5.8-4.8-7.9-8.3C4.2,99,3.2,94.9,3.2,90.2l14.4-0.7c0,4.1,1.7,7.3,5.2,9.6s7.4,3.4,11.6,3.4c9.5,0,14.2-3.3,14.2-10
	c0-5.5-3.2-8.7-9.7-9.7l-13.2-1.4c-6.6-1-11.9-3.3-15.7-7.1s-5.8-9.1-5.8-16.1S7,45.5,12.5,41s12.5-6.8,21-6.8
	c8.5,0,15.4,2.2,20.5,6.5c5.2,4.3,7.8,9.8,7.8,16.5l-14.1,0.7c-1.3-6.6-5.7-9.9-13.3-9.9c-4.6,0-8.3,1-10.9,3
	c-2.6,2-3.9,4.3-3.9,7.1c0,2.7,1,4.8,2.9,6.4c1.9,1.5,4.3,2.5,7.1,2.8l13,1.4C56.9,70.6,64.2,78.4,64.2,92.1z M92.7,116H76.8V34.8
	h15.8V116z M170.4,92.6c0,7.5-2.1,13.3-6.2,17.3c-4,4-9.7,6-17,6h-10.9c-9,0-15.4-1.6-19.2-4.7c-3.7-3.1-5.6-8.5-5.6-16.2V34.8h34.3
	c7.8,0,13.6,1.9,17.4,5.8c4,3.9,5.9,9.3,5.9,16.4c0,4.1-1.1,7.6-3.2,10.5c-2.1,2.9-4.3,4.9-6.8,6.2
	C166.6,77.2,170.4,83.5,170.4,92.6z M144.6,66.5c5.9,0,8.8-2.9,8.8-8.8s-2.9-8.8-8.8-8.8h-17.2v17.6H144.6z M154.5,91.8
	c0-3.6-0.6-6.4-1.9-8.2c-1.3-1.9-3.6-2.8-7-2.8h-18.2v12.8c0,3.1,0.8,5.3,2.3,6.5c1.6,1.2,4.2,1.8,7.8,1.8h8.2
	C151.6,101.9,154.5,98.5,154.5,91.8z"/>
<g>
	<path class="st0" d="M208,31.9c0-2.3-1.8-4.1-4.1-4.1h-4.1c0,0,0,0,0,0h-8.2c-2.3,0-4.1,1.8-4.1,4.1v20.4H208V31.9z"/>
	<path class="st0" d="M208,56.4h-20.4v35.9l0,0l5.6,14.3l2.7,6.9c0.3,0.8,1,1.3,1.9,1.3c0,0,0,0,0,0c0.8,0,1.6-0.5,1.9-1.3
		c0,0,1.2-3.1,2.7-6.9c2.4-6.1,5.6-14.2,5.6-14.3l0,0c0,0,0,0,0,0C208,92.3,208,56.4,208,56.4z"/>
</g>
</svg>
