<?xml version="1.0" encoding="utf-8"?>
<!-- Generator: Adobe Illustrator 23.0.3, SVG Export Plug-In . SVG Version: 6.00 Build 0)  -->
<svg version="1.1" id="color" xmlns="http://www.w3.org/2000/svg" xmlns:xlink="http://www.w3.org/1999/xlink" x="0px" y="0px"
	 viewBox="0 0 512 512" style="enable-background:new 0 0 512 512;" xml:space="preserve">
<style type="text/css">
	.st0{fill:#ECEFF1;}
	.st1{fill:#D2D4D6;}
	.st2{fill:#996EFF;}
</style>
<path class="st0" d="M368,0H101.3C69,0,42.7,26.3,42.7,58.7v394.7c0,32.4,26.3,58.7,58.7,58.7H368c32.4,0,58.7-26.3,58.7-58.7V58.7
	C426.7,26.3,400.4,0,368,0z"/>
<path class="st1" d="M234.7,0H101.3C69,0,42.7,26.3,42.7,58.7v394.7c0,32.4,26.3,58.7,58.7,58.7h133.3L234.7,0L234.7,0z"/>
<g>
	<path class="st2" d="M282.7,512c-8.8,0-16-7.2-16-16V378.7c0-8.8,7.2-16,16-16s16,7.2,16,16V496C298.7,504.8,291.5,512,282.7,512z"
		/>
	<path class="st2" d="M389.3,512H336c-8.8,0-16-7.2-16-16v-37.3c0-20.6,16.7-37.3,37.3-37.3H368c2.9,0,5.3-2.4,5.3-5.3v-16
		c0-2.9-2.4-5.3-5.3-5.3h-32c-8.8,0-16-7.2-16-16s7.2-16,16-16h32c20.6,0,37.3,16.7,37.3,37.3v16c0,20.6-16.7,37.3-37.3,37.3h-10.7
		c-2.9,0-5.3,2.4-5.3,5.3V480h37.3c8.8,0,16,7.2,16,16S398.2,512,389.3,512z"/>
	<path class="st2" d="M474.7,453.3h-32c-8.8,0-16-7.2-16-16s7.2-16,16-16h32c2.9,0,5.3-2.4,5.3-5.3v-16c0-2.9-2.4-5.3-5.3-5.3h-32
		c-8.8,0-16-7.2-16-16s7.2-16,16-16h32c20.6,0,37.3,16.7,37.3,37.3v16C512,436.6,495.3,453.3,474.7,453.3z"/>
	<path class="st2" d="M474.7,512h-32c-8.8,0-16-7.2-16-16s7.2-16,16-16h32c2.9,0,5.3-2.4,5.3-5.3v-16c0-2.9-2.4-5.3-5.3-5.3h-32
		c-8.8,0-16-7.2-16-16s7.2-16,16-16h32c20.6,0,37.3,16.7,37.3,37.3v16C512,495.3,495.3,512,474.7,512z"/>
</g>
</svg>
