<?xml version="1.0" encoding="utf-8"?>
<!-- Generator: Adobe Illustrator 23.0.3, SVG Export Plug-In . SVG Version: 6.00 Build 0)  -->
<svg version="1.1" id="color" xmlns="http://www.w3.org/2000/svg" xmlns:xlink="http://www.w3.org/1999/xlink" x="0px" y="0px"
	 viewBox="0 0 512 512" style="enable-background:new 0 0 512 512;" xml:space="preserve">
<style type="text/css">
	.st0{fill:#996EFF;}
	.st1{opacity:0.1;enable-background:new    ;}
	.st2{fill:#FFFFFF;}
</style>
<path class="st0" d="M95.2,510.8c-6-2.5-9.9-8.3-9.9-14.8v-90.7H58.7C26.3,405.3,0,379,0,346.7v-288C0,26.3,26.3,0,58.7,0h394.7
	C485.7,0,512,26.3,512,58.7v288c0,32.4-26.3,58.7-58.7,58.7H214.6l-102,102C108,512,101.1,513.2,95.2,510.8z"/>
<path class="st1" d="M256,0H58.7C26.3,0,0,26.3,0,58.7v288c0,32.4,26.3,58.7,58.7,58.7h26.7V496c0,6.5,3.9,12.3,9.9,14.8
	c2,0.8,4,1.2,6.1,1.2c4.1,0,8.2-1.6,11.3-4.7l102-102H256V0z"/>
<g>
	<path class="st2" d="M154.7,277.3c-8.8,0-16-7.2-16-16v-96c0-8.8,7.2-16,16-16s16,7.2,16,16v96
		C170.7,270.2,163.5,277.3,154.7,277.3z"/>
	<path class="st2" d="M261.3,277.3H208c-8.8,0-16-7.2-16-16v-26.7c0-20.6,16.7-37.3,37.3-37.3H240c2.9,0,5.3-2.4,5.3-5.3v-5.3
		c0-2.9-2.4-5.3-5.3-5.3h-32c-8.8,0-16-7.2-16-16s7.2-16,16-16h32c20.6,0,37.3,16.7,37.3,37.3v5.3c0,20.6-16.7,37.3-37.3,37.3h-10.7
		c-2.9,0-5.3,2.4-5.3,5.3v10.7h37.3c8.8,0,16,7.2,16,16C277.3,270.1,270.2,277.3,261.3,277.3z"/>
	<path class="st2" d="M346.7,277.3h-32c-8.8,0-16-7.2-16-16s7.2-16,16-16h32c2.9,0,5.3-2.4,5.3-5.3v-5.3c0-2.9-2.4-5.3-5.3-5.3h-32
		c-8.8,0-16-7.2-16-16s7.2-16,16-16h32c20.6,0,37.3,16.7,37.3,37.3v5.3C384,260.6,367.3,277.3,346.7,277.3z"/>
	<path class="st2" d="M346.7,229.3h-32c-8.8,0-16-7.2-16-16s7.2-16,16-16h32c2.9,0,5.3-2.4,5.3-5.3v-5.3c0-2.9-2.4-5.3-5.3-5.3h-32
		c-8.8,0-16-7.2-16-16s7.2-16,16-16h32c20.6,0,37.3,16.7,37.3,37.3v5.3C384,212.6,367.3,229.3,346.7,229.3z"/>
</g>
</svg>
