<?xml version="1.0" encoding="utf-8"?>
<!-- Generator: Adobe Illustrator 23.0.3, SVG Export Plug-In . SVG Version: 6.00 Build 0)  -->
<svg version="1.1" id="color" xmlns="http://www.w3.org/2000/svg" xmlns:xlink="http://www.w3.org/1999/xlink" x="0px" y="0px"
	 viewBox="0 0 512 512" style="enable-background:new 0 0 512 512;" xml:space="preserve">
<style type="text/css">
	.st0{fill:#ECEFF1;}
	.st1{fill:#D2D4D6;}
	.st2{fill:#90A4AE;}
	.st3{fill:#82939C;}
	.st4{fill:#FC9F60;}
	.st5{opacity:0.1;}
</style>
<path class="st0" d="M256,448c-1.6,0-3.1-0.3-4.6-1c-53-25.3-120.5-27.1-212.4-5.7c-9.5,2.2-19.3,0-26.9-6.1
	C4.4,429.1,0,419.9,0,410.1V66.4c0-12,6.9-23.3,17.5-28.6c102-51.2,178.1-50.9,238.5,1.2c60.4-52.1,136.5-52.4,238.5-1.2
	c10.6,5.4,17.5,16.6,17.5,28.6v343.7c0,9.8-4.4,19-12.1,25.1c-7.7,6.1-17.5,8.3-26.9,6.1c-91.9-21.4-159.4-19.6-212.4,5.7
	C259.1,447.7,257.6,448,256,448z"/>
<path class="st1" d="M256,448L256,448L256,448z M151.6-0.4c-39.1,0-83.4,12.7-134,38.2C6.9,43.1,0,54.4,0,66.4v343.7
	c0,9.8,4.4,19,12.1,25.1c5.7,4.5,12.6,6.9,19.7,6.9c2.4,0,4.8-0.3,7.2-0.8c42.2-9.8,79.3-14.7,112.2-14.7c35.4,0,65.9,5.7,92.8,17.1
	c-3.1-1.3-6.2-2.6-9.4-3.8V23.1C209.7,7.4,182.2-0.4,151.6-0.4L151.6-0.4z"/>
<path class="st2" d="M277.3,23v416.9c-5.8,2.1-11.3,4.5-16.6,7c-1.5,0.6-3.2,1.1-4.7,1.1c-1.5,0-3.2-0.4-4.7-1.1
	c-5.3-2.6-10.9-4.9-16.6-7V23c7.3,4.5,14.5,9.8,21.3,15.8C262.8,32.9,270.1,27.5,277.3,23z"/>
<path class="st3" d="M234.7,23L234.7,23v416.9c3.2,1.2,6.3,2.4,9.4,3.8c2.5,1,4.9,2.2,7.3,3.3l4.7,1.1V38.8l0,0
	C249.2,32.9,241.9,27.5,234.7,23L234.7,23z"/>
<path class="st4" d="M245.7,492.9l14.3-71.5c0.6-3.1,2.2-5.9,4.4-8.2l157.3-157.3c14.1-14.1,37.1-14.1,51.2,0l28.6,28.6
	c14.1,14.1,14.1,37.1,0,51.2L344.1,493c-2.2,2.2-5.1,3.8-8.2,4.4l-71.5,14.3C253.2,513.9,243.4,504,245.7,492.9L245.7,492.9z"/>
<path class="st5" d="M447.2,245.4c-9.3,0-18.5,3.5-25.6,10.6L264.3,413.2c-2.2,2.2-3.8,5.1-4.4,8.2l-14.3,71.5
	c-1.1,5.6,0.8,10.8,4.4,14.4l237.1-237.1l-14.3-14.3C465.7,248.9,456.5,245.4,447.2,245.4L447.2,245.4z"/>
</svg>
