<?xml version="1.0" encoding="utf-8"?>
<!-- Generator: Adobe Illustrator 23.0.3, SVG Export Plug-In . SVG Version: 6.00 Build 0)  -->
<svg version="1.1" id="color" xmlns="http://www.w3.org/2000/svg" xmlns:xlink="http://www.w3.org/1999/xlink" x="0px" y="0px"
	 viewBox="0 0 512 512" style="enable-background:new 0 0 512 512;" xml:space="preserve">
<style type="text/css">
	.st0{fill:#FF2C55;}
	.st1{opacity:0.1;enable-background:new    ;}
	.st2{fill:#FFFFFF;}
</style>
<title>symbols</title>
<path class="st0" d="M95.2,510.8c-6-2.5-9.9-8.3-9.9-14.8v-90.7H58.7C26.3,405.3,0,379.1,0,346.7v-288C0,26.3,26.3,0,58.7,0h394.7
	C485.7,0,512,26.3,512,58.7v288c0,32.4-26.3,58.6-58.7,58.7H214.6l-102,102C108.1,511.9,101.2,513.3,95.2,510.8z"/>
<path class="st1" d="M256,0H58.7C26.3,0,0,26.3,0,58.7v288c0,32.4,26.3,58.6,58.7,58.7h26.7V496c0,8.8,7.2,16,16,16
	c4.2,0,8.3-1.7,11.3-4.7l102-102H256V0z"/>
<g>
	<path class="st2" d="M181.8,266.7c-8.8,0-16-7.2-16-16v-96c0-8.8,7.2-16,16-16s16,7.2,16,16v96
		C197.8,259.5,190.6,266.7,181.8,266.7z"/>
	<path class="st2" d="M117.8,202.7c0-8.8,7.2-16,16-16h96c8.8,0,16,7.2,16,16s-7.2,16-16,16h-96C125,218.7,117.8,211.5,117.8,202.7z
		"/>
	<path class="st2" d="M266.2,202.7c0-8.8,7.2-16,16-16h96c8.8,0,16,7.2,16,16s-7.2,16-16,16h-96
		C273.4,218.7,266.2,211.5,266.2,202.7z"/>
	<path class="st2" d="M346.2,154.7c0-8.8-7.2-16-16-16l0,0c-8.8,0-16,7.2-16,16s7.2,16,16,16l0,0C339,170.7,346.2,163.5,346.2,154.7
		z"/>
	<path class="st2" d="M346.2,250.7c0-8.8-7.2-16-16-16l0,0c-8.8,0-16,7.1-16,16c0,8.8,7.1,16,16,16l0,0l0,0
		C339,266.7,346.2,259.5,346.2,250.7z"/>
</g>
</svg>
