<svg width="23" height="23" viewBox="0 0 23 23" fill="none" xmlns="http://www.w3.org/2000/svg">
<path d="M11.5 11.5451L10.9475 12.2458H10.934C9.70762 12.3941 8.58911 13.014 7.80747 13.9978C7.68613 14.1595 7.48403 14.2404 7.26836 14.2539C7.06626 14.2539 6.86406 14.146 6.74277 13.9843L0.134721 5.21108C0.0404746 5.08975 0 4.92803 0 4.77979L3.29399 3.43213L6.20371 4.77979L11.5 11.5451Z" fill="#0AB5A3"/>
<path d="M23 4.7793C23 4.92754 22.9595 5.08921 22.8653 5.21055L16.2573 13.9838C16.1359 14.1455 15.9337 14.2533 15.7317 14.2533C15.7182 14.2533 15.7182 14.2533 15.7182 14.2533C15.516 14.2533 15.3139 14.159 15.1926 13.9973C14.4109 13.0134 13.279 12.3936 12.0525 12.2453L11.5 11.5446L16.8098 4.7793L19.666 3.43164L23 4.7793Z" fill="#0B8F82"/>
<path d="M11.5 22.9998C8.15588 22.9998 5.43555 20.2794 5.43555 16.9353C5.43555 13.5912 8.15588 10.8708 11.5 10.8708C14.8441 10.8708 17.5645 13.5912 17.5645 16.9353C17.5645 20.2794 14.8441 22.9998 11.5 22.9998Z" fill="#FED843"/>
<path d="M17.5645 16.9353C17.5645 13.5912 14.8441 10.8708 11.5 10.8708V22.9998C14.8441 22.9998 17.5645 20.2794 17.5645 16.9353Z" fill="#FABE2C"/>
<path d="M13.5215 15.5876C13.5215 16.4367 12.9824 17.2048 12.1873 17.4878C12.1873 17.8652 11.8774 18.229 11.5 18.229C11.1361 18.229 10.8262 17.9864 10.8262 17.6091C10.8262 17.0431 11.0822 16.5714 11.5 16.3289C11.5674 16.2884 11.6482 16.248 11.7291 16.221C11.9986 16.1267 12.1738 15.8706 12.1738 15.5876C12.1738 15.2103 11.8774 14.9138 11.5 14.9138C11.1226 14.9138 10.8262 15.2103 10.8262 15.5876C10.8262 15.9649 10.5297 16.2615 10.1523 16.2615C9.77496 16.2615 9.47852 15.9649 9.47852 15.5876C9.47852 14.469 10.3814 13.5662 11.5 13.5662C12.6186 13.5662 13.5215 14.469 13.5215 15.5876Z" fill="#474F54"/>
<path d="M11.5 20.3044C11.8721 20.3044 12.1738 20.0028 12.1738 19.6306C12.1738 19.2585 11.8721 18.9568 11.5 18.9568C11.1279 18.9568 10.8262 19.2585 10.8262 19.6306C10.8262 20.0028 11.1279 20.3044 11.5 20.3044Z" fill="#474F54"/>
<path d="M12.1738 19.6306C12.1738 19.2584 11.8721 18.9568 11.5 18.9568V20.3044C11.8721 20.3044 12.1738 20.0027 12.1738 19.6306Z" fill="#32393F"/>
<path d="M13.5215 15.5876C13.5215 16.4367 12.9824 17.2048 12.1873 17.4878C12.1873 17.8652 11.8774 18.229 11.5 18.229V16.3289C11.5674 16.2884 11.6482 16.248 11.7291 16.221C11.9986 16.1267 12.1738 15.8706 12.1738 15.5876C12.1738 15.2103 11.8774 14.9138 11.5 14.9138V13.5662C12.6186 13.5662 13.5215 14.469 13.5215 15.5876Z" fill="#32393F"/>
<path d="M23 4.77964H0C0 4.6584 0.0404746 4.53706 0.107857 4.42925L2.84809 0.296439C2.98281 0.107768 3.18501 0 3.41406 0H19.5859C19.815 0 20.0172 0.107768 20.1519 0.296439L22.8921 4.42925C22.9595 4.53711 23 4.6584 23 4.77964Z" fill="#22BEB0"/>
<path d="M11.5 4.77964H23C23 4.6584 22.9595 4.53706 22.8921 4.42925L20.1519 0.296439C20.0172 0.107723 19.815 0 19.5859 0H11.5V4.77964Z" fill="#0DA898"/>
</svg>
