<svg id="color" enable-background="new 0 0 24 24" height="512" viewBox="0 0 24 24" width="512" xmlns="http://www.w3.org/2000/svg"><path d="m4.463 23.943c-.28-.116-.463-.39-.463-.693v-4.25h-1.25c-1.517 0-2.75-1.233-2.75-2.75v-13.5c0-1.517 1.233-2.75 2.75-2.75h18.5c1.517 0 2.75 1.233 2.75 2.75v13.5c0 1.517-1.233 2.75-2.75 2.75h-11.189l-4.78 4.78c-.218.218-.543.278-.818.163z" fill="#2196f3"/><path d="m12 0h-9.25c-1.517 0-2.75 1.233-2.75 2.75v13.5c0 1.517 1.233 2.75 2.75 2.75h1.25v4.25c0 .303.183.577.463.693.092.038.189.057.286.057.194 0 .386-.075.531-.22l4.78-4.78h1.94z" fill="#2187d8"/><g fill="#fff"><path d="m7.25 13c-.414 0-.75-.336-.75-.75v-4.5c0-.414.336-.75.75-.75s.75.336.75.75v4.5c0 .414-.336.75-.75.75z"/><path d="m12.25 13h-2.5c-.414 0-.75-.336-.75-.75v-1.25c0-.965.785-1.75 1.75-1.75h.5c.138 0 .25-.112.25-.25v-.25c0-.138-.112-.25-.25-.25h-1.5c-.414 0-.75-.336-.75-.75s.336-.75.75-.75h1.5c.965 0 1.75.785 1.75 1.75v.25c0 .965-.785 1.75-1.75 1.75h-.5c-.138 0-.25.112-.25.25v.5h1.75c.414 0 .75.336.75.75s-.336.75-.75.75z"/><path d="m16.25 13h-1.5c-.414 0-.75-.336-.75-.75s.336-.75.75-.75h1.5c.138 0 .25-.112.25-.25v-.25c0-.138-.112-.25-.25-.25h-1.5c-.414 0-.75-.336-.75-.75s.336-.75.75-.75h1.5c.965 0 1.75.785 1.75 1.75v.25c0 .965-.785 1.75-1.75 1.75z"/><path d="m16.25 10.75h-1.5c-.414 0-.75-.336-.75-.75s.336-.75.75-.75h1.5c.138 0 .25-.112.25-.25v-.25c0-.138-.112-.25-.25-.25h-1.5c-.414 0-.75-.336-.75-.75s.336-.75.75-.75h1.5c.965 0 1.75.785 1.75 1.75v.25c0 .965-.785 1.75-1.75 1.75z"/></g></svg>