<svg id="color" enable-background="new 0 0 24 24" height="512" viewBox="0 0 24 24" width="512" xmlns="http://www.w3.org/2000/svg"><path d="m17.25 0h-12.5c-1.517 0-2.75 1.233-2.75 2.75v18.5c0 1.517 1.233 2.75 2.75 2.75h12.5c1.517 0 2.75-1.233 2.75-2.75v-18.5c0-1.517-1.233-2.75-2.75-2.75z" fill="#eceff1"/><path d="m11 0h-6.25c-1.517 0-2.75 1.233-2.75 2.75v18.5c0 1.517 1.233 2.75 2.75 2.75h6.25z" fill="#d2d4d6"/><g fill="#2196f3"><path d="m13.25 24c-.414 0-.75-.336-.75-.75v-5.5c0-.414.336-.75.75-.75s.75.336.75.75v5.5c0 .414-.336.75-.75.75z"/><path d="m18.25 24h-2.5c-.414 0-.75-.336-.75-.75v-1.75c0-.965.785-1.75 1.75-1.75h.5c.138 0 .25-.112.25-.25v-.75c0-.138-.112-.25-.25-.25h-1.5c-.414 0-.75-.336-.75-.75s.336-.75.75-.75h1.5c.965 0 1.75.785 1.75 1.75v.75c0 .965-.785 1.75-1.75 1.75h-.5c-.138 0-.25.112-.25.25v1h1.75c.414 0 .75.336.75.75s-.336.75-.75.75z"/><path d="m22.25 21.25h-1.5c-.414 0-.75-.336-.75-.75s.336-.75.75-.75h1.5c.138 0 .25-.112.25-.25v-.75c0-.138-.112-.25-.25-.25h-1.5c-.414 0-.75-.336-.75-.75s.336-.75.75-.75h1.5c.965 0 1.75.785 1.75 1.75v.75c0 .965-.785 1.75-1.75 1.75z"/><path d="m22.25 24h-1.5c-.414 0-.75-.336-.75-.75s.336-.75.75-.75h1.5c.138 0 .25-.112.25-.25v-.75c0-.138-.112-.25-.25-.25h-1.5c-.414 0-.75-.336-.75-.75s.336-.75.75-.75h1.5c.965 0 1.75.785 1.75 1.75v.75c0 .965-.785 1.75-1.75 1.75z"/></g></svg>