<svg id="color" xmlns="http://www.w3.org/2000/svg" viewBox="0 0 447.53 512">
  <title>on-paper-symbols</title>
  <path d="M653.67,0H387a58.71,58.71,0,0,0-58.66,58.67V453.33A58.71,58.71,0,0,0,387,512H653.67a58.72,58.72,0,0,0,58.67-58.67V58.67A58.72,58.72,0,0,0,653.67,0Z" transform="translate(-328.34)" fill="#eceff1"/>
  <path d="M520.34,0H387a58.71,58.71,0,0,0-58.66,58.67V453.33A58.71,58.71,0,0,0,387,512H520.34Z" transform="translate(-328.34)" fill="#d2d4d6"/>
  <g>
    <path d="M563.47,512a16,16,0,0,1-16-16V400a16,16,0,0,1,32,0v96A16,16,0,0,1,563.47,512Z" transform="translate(-328.34)" fill="#f44336"/>
    <path d="M499.47,448a16,16,0,0,1,16-16h96a16,16,0,0,1,0,32h-96A16,16,0,0,1,499.47,448Z" transform="translate(-328.34)" fill="#f44336"/>
    <path d="M647.87,448a16,16,0,0,1,16-16h96a16,16,0,0,1,0,32h-96A16,16,0,0,1,647.87,448Z" transform="translate(-328.34)" fill="#f44336"/>
    <path d="M727.87,400a16,16,0,0,0-16-16h0a16,16,0,1,0,0,32h0A16,16,0,0,0,727.87,400Z" transform="translate(-328.34)" fill="#f44336"/>
    <path d="M727.87,496a16,16,0,0,0-16-16h0a16,16,0,1,0,0,32h0A16,16,0,0,0,727.87,496Z" transform="translate(-328.34)" fill="#f44336"/>
  </g>
</svg>
