<?xml version="1.0"?>
<svg xmlns="http://www.w3.org/2000/svg" xmlns:xlink="http://www.w3.org/1999/xlink" version="1.1" id="color" x="0px" y="0px" viewBox="0 0 24 24" enable-background="new 0 0 24 24" xml:space="preserve" width="512" height="512"><path fill="#ECEFF1" d="M12,21c-0.074,0-0.147-0.016-0.215-0.049c-2.484-1.184-5.647-1.268-9.955-0.268  c-0.445,0.103-0.904,0-1.262-0.285C0.207,20.112,0,19.684,0,19.223V3.113c0-0.564,0.323-1.09,0.822-1.342  C5.603-0.631,9.17-0.617,12,1.825c2.831-2.442,6.398-2.454,11.178-0.054C23.677,2.022,24,2.549,24,3.113v16.11  c0,0.461-0.207,0.89-0.568,1.176c-0.359,0.284-0.819,0.388-1.262,0.285c-4.307-1.001-7.471-0.917-9.955,0.268  C12.147,20.984,12.074,21,12,21z"/><path fill="#D2D4D6" d="M12,21L12,21L12,21z M7.104-0.019c-1.834,0-3.908,0.597-6.282,1.79C0.322,2.022,0,2.549,0,3.113v16.11  c0,0.461,0.207,0.89,0.568,1.176c0.267,0.212,0.591,0.323,0.923,0.323c0.113,0,0.226-0.013,0.339-0.039  c1.98-0.46,3.719-0.691,5.261-0.691c1.659,0,3.09,0.267,4.35,0.803c-0.144-0.062-0.291-0.12-0.441-0.176V1.083  C9.831,0.348,8.541-0.019,7.104-0.019L7.104-0.019z"/><path fill="#90A4AE" d="M13,1.08v19.54c-0.27,0.1-0.53,0.21-0.78,0.33C12.15,20.98,12.07,21,12,21s-0.15-0.02-0.22-0.05  c-0.25-0.12-0.51-0.23-0.78-0.33V1.08c0.34,0.21,0.68,0.46,1,0.74C12.32,1.54,12.66,1.29,13,1.08z"/><path fill="#82939C" d="M11,1.08v0.003V20.62c0.15,0.055,0.297,0.114,0.441,0.176c0.115,0.049,0.228,0.101,0.34,0.154L12,21V1.82  l0,0C11.68,1.54,11.34,1.29,11,1.08L11,1.08z"/><path fill="#2196F3" d="M11.515,23.104l0.67-3.352c0.029-0.145,0.101-0.278,0.205-0.383l7.372-7.372  c0.662-0.661,1.738-0.661,2.4-0.001l1.341,1.342c0.662,0.662,0.662,1.738,0,2.4l-7.372,7.372c-0.104,0.104-0.238,0.177-0.383,0.205  l-3.351,0.67C11.867,24.09,11.411,23.624,11.515,23.104L11.515,23.104z"/><path fill="#2187D8" d="M20.962,11.501c-0.435,0-0.869,0.165-1.201,0.496l-7.372,7.372c-0.104,0.105-0.176,0.238-0.205,0.383  l-0.67,3.352c-0.052,0.261,0.037,0.508,0.205,0.677l11.113-11.113l-0.671-0.672C21.831,11.666,21.397,11.501,20.962,11.501  L20.962,11.501z"/></svg>
