<svg id="color" xmlns="http://www.w3.org/2000/svg" viewBox="0 0 512 512.01">
  <title>symbols</title>
  <path d="M95.21,510.78A16,16,0,0,1,85.33,496V405.33H58.67A58.71,58.71,0,0,1,0,346.67v-288A58.71,58.71,0,0,1,58.67,0H453.33A58.71,58.71,0,0,1,512,58.67v288a58.71,58.71,0,0,1-58.67,58.66H214.63l-102,102A16,16,0,0,1,95.21,510.78Z" transform="translate(0)" fill="#f44336"/>
  <path d="M256,0H58.67A58.71,58.71,0,0,0,0,58.67v288a58.71,58.71,0,0,0,58.67,58.66H85.33V496a16,16,0,0,0,27.31,11.31l102-102H256Z" transform="translate(0)" fill="#d43a2f"/>
  <g>
    <path d="M181.8,266.67a16,16,0,0,1-16-16v-96a16,16,0,0,1,32,0v96A16,16,0,0,1,181.8,266.67Z" transform="translate(0)" fill="#fff"/>
    <path d="M117.8,202.67a16,16,0,0,1,16-16h96a16,16,0,0,1,0,32h-96A16,16,0,0,1,117.8,202.67Z" transform="translate(0)" fill="#fff"/>
    <path d="M266.2,202.67a16,16,0,0,1,16-16h96a16,16,0,0,1,0,32h-96A16,16,0,0,1,266.2,202.67Z" transform="translate(0)" fill="#fff"/>
    <path d="M346.2,154.67a16,16,0,0,0-16-16h0a16,16,0,0,0,0,32h0A16,16,0,0,0,346.2,154.67Z" transform="translate(0)" fill="#fff"/>
    <path d="M346.2,250.67a16,16,0,0,0-16-16h0a16,16,0,1,0,0,32h0A16,16,0,0,0,346.2,250.67Z" transform="translate(0)" fill="#fff"/>
  </g>
</svg>
