<?xml version="1.0" encoding="utf-8"?>
<!-- Generator: Adobe Illustrator 23.0.3, SVG Export Plug-In . SVG Version: 6.00 Build 0)  -->
<svg version="1.1" id="color" xmlns="http://www.w3.org/2000/svg" xmlns:xlink="http://www.w3.org/1999/xlink" x="0px" y="0px"
	 viewBox="0 0 447.5 512" style="enable-background:new 0 0 447.5 512;" xml:space="preserve">
<style type="text/css">
	.st0{fill:#ECEFF1;}
	.st1{fill:#D2D4D6;}
	.st2{fill:#EF4444;}
</style>
<title>on-paper-symbols</title>
<path class="st0" d="M325.3,0H58.7C26.3,0,0,26.3,0,58.7v394.7C0,485.7,26.3,512,58.7,512h266.7c32.4,0,58.6-26.3,58.7-58.7V58.7
	C384,26.3,357.7,0,325.3,0z"/>
<path class="st1" d="M192,0H58.7C26.3,0,0,26.3,0,58.7v394.7C0,485.7,26.3,512,58.7,512H192V0z"/>
<g>
	<path class="st2" d="M235.1,512c-8.8,0-16-7.2-16-16v-96c0-8.8,7.2-16,16-16s16,7.2,16,16v96C251.1,504.8,244,512,235.1,512z"/>
	<path class="st2" d="M171.1,448c0-8.8,7.2-16,16-16h96c8.8,0,16,7.2,16,16s-7.2,16-16,16h-96C178.3,464,171.1,456.8,171.1,448z"/>
	<path class="st2" d="M319.5,448c0-8.8,7.2-16,16-16h96c8.8,0,16,7.2,16,16s-7.2,16-16,16h-96C326.7,464,319.5,456.8,319.5,448z"/>
	<path class="st2" d="M399.5,400c0-8.8-7.2-16-16-16l0,0c-8.8,0-16,7.2-16,16s7.2,16,16,16l0,0C392.4,416,399.5,408.8,399.5,400z"/>
	<path class="st2" d="M399.5,496c0-8.8-7.2-16-16-16l0,0c-8.8,0-16,7.2-16,16s7.2,16,16,16l0,0C392.4,512,399.5,504.8,399.5,496z"/>
</g>
</svg>
